<svg xmlns="http://www.w3.org/2000/svg" xmlns:xlink="http://www.w3.org/1999/xlink" xmlns:lucid="lucid" width="462" height="161"><g transform="translate(1699.7005208333333 20)" lucid:page-tab-id="0_0"><path d="M-1600 0h260v120h-260z" stroke="#000" stroke-opacity="0" stroke-width="4" fill="#fff" fill-opacity="0"/><use xlink:href="#a" transform="matrix(1,0,0,1,-1595,5) translate(-84.70052083333331 90.06076388888889)"/><defs><path fill="#fff" d="M72-866c10-61-15-117-13-176 17-42 28-93 33-148 21-20 43-27 39-67 20-14 41-25 47-53 10-18 24-33 27-58 18-15 41-26 53-47 71-28 126-84 218-90 27-5 56-10 73-23 102 20 238 9 291 80 60 3 79 48 131 59-1 15 8 25 20 27 20 29 20 77 51 94 15 4 7 26 9 37 34 52 24 167 23 253-2 19-6 39-11 58-39 27-96 40-158 33-13-33-45-24-39-76 1-21-12-19-14-36-12-51 4-79-8-125-5-18-27-67-39-93-44-28-97-48-142-75-21-11-41 2-63 2-92-20-159 40-222 76-49 28-78 67-80 139-4 31-8 59-22 82 28 36 14 107 60 128 19 14 41 25 41 58 46 2 83 27 119 39 35 42 129 10 176 47 17 8 32 12 59 12 30 0 46 30 82 27 40 41 61 102 105 139-12 37 15 54 26 78-10 90 38 190-2 277-17 46-52 80-72 128-10 16-11 40-39 37 4 28-23 24-38 35-55 42-87 63-179 66-38 3-88 26-122 6-37-21-110-8-140-40-9-17-44-15-41-40-94-16-108-111-172-158 9-46-23-73-26-114 8-53 46-90 98-99 53 3 81 37 113 62 13 45 50 70 59 119 46 14 71 72 135 55 31-7 75-16 103-23 12-6 17-27 37-23 31 4 35-34 63-36 0-17-3-34-2-52 2-15 18-15 14-36 21-23 7-71-6-96-21-4-11-37-33-41-24-62-108-86-184-86-29 0-52 15-68-7-28-38-111-10-153-41-54-40-110-97-150-149-4-13-2-31-20-33-5-14-4-23-21-26 1-37-11-63-26-86" id="b"/><path fill="#fff" d="M889-1149c8 42 55 85 21 131-8 11-16 22-21 35-49 8-67 48-125 47-26 1-50-9-76-8-34-2-61 22-96 20-42 0-84-16-127-8-13 22-5 49-6 78 1 46-14 91-13 137-1 38 14 71 13 109 0 42-26 61-27 102-2 14 14 35 0 43 3 13 16 16 14 35-17 108 3 219 27 309 10 15 27 20 39 33 27 7 49-10 76-9 51 1 54-48 102-50 21-41 54-75 72-119 31-7 94-5 104 32 5 31 31 33 29 70 1 44-25 78-33 115-35 12-35 58-80 61-14 36-45 60-82 72-9 0-21-5-24-12-35 12-32 50-78 54-27 3-77-1-100 11-26-21-79-21-119-26 4-15-14-7-19-15-16-7-19-30-41-32-6-38-38-52-51-86-31-81-59-169-53-289-1-33 13-61 12-94-1-66-20-125-10-193 0-17-3-32-8-45 16-13 23-39 24-66l-6-6c5-40 10-93-12-118-4-27 14-47 6-74-50-7-112 8-158-6-16-28-47-51-47-93-1-48 31-73 47-106 37-3 56-30 93-33 33-1 54 27 92 21 6-14 23-44 4-56-9-11 2-18 2-30-2-49-21-91-6-144 16-56 36-119 71-153 110-20 160 46 160 145 0 28-21 63-18 96 0 30 4 65 4 95 43-12 79 26 119 6 22 0 22 23 41 26 21-8 36-25 59-32h172c11 7 14 21 33 20" id="c"/><path fill="#fff" d="M1044-776c10 80 39 155 18 240-14 55-4 140-32 184-26 44-58 81-63 147-3 38-28 59-56 76-11 11-9 29-18 41-24-4-17 15-27 27C794-2 690 39 588 68c-18 4-34 6-45 6-27 4-23-16-45-17-17-1-32 7-49 6-55-9-71-63-138-59-21-24-32-64-65-76-17-2-27-17-35-30-32 2-23-48-51-52-2-31-28-47-28-80-4-48-47-58-48-108-1-30 9-56 8-86 1-32-16-61-14-94-2-63 24-122 22-185-3-44-26-103 13-129 0-33 20-68 25-100 13-17 38-29 34-60-3-16 4-35 21-36 9-24 16-28 32-41 1-32 41-35 49-63 10-34 66-30 82-60 24-24 73-30 117-35 30-1 58 13 88 12 98-17 191 7 241 54 31 29 57 61 103 73 7 27 36 34 53 52 7 56 50 82 50 143 1 48 31 80 36 121zM557-141c27 1 32-19 59-18 32-1 36-26 60-37 18-15 37-26 41-51-3-16 15-18 22-25 25-33 23-90 58-114 39-26 16-108 35-156 11-28 40-65 20-98-34-55-14-143-57-196-37-46-80-103-133-131-5-8-9-19-24-17-48-11-107-46-161-18-36 14-47 55-94 56-3 57-57 58-57 122 0 39-3 93-9 134-23 151 13 305 48 424 7 18 24 22 27 43 8 25 39 27 57 43 39 14 47 45 108 39" id="d"/><path fill="#fff" d="M109-547c24-36-4-91 0-135 4-43 15-88 20-135-9-38-28-76-27-125 0-36 13-64 13-107 0-70 73-89 143-94 42 1 75 17 88 49-4 50-9 102-6 158 43-1 42-47 80-53 8-24 25-42 39-60 75-29 112-100 211-104 42 0 69 23 92 45 67-3 108 40 140 76 24 33 15 90 26 141-6 42-13 82-13 135 0 38-23 66-20 105-16 14-30 22-27 51-16 5-18 17-39 14-21 49-69 72-106 105-31-8-58-1-86-13-30-37-39-100-53-151 24-39 62-88 100-113 10-42 41-106 0-139-32 5-42 34-66 47-23-1-36 10-59 6-27 9-28 43-61 47-6 12-15 25-19 39-32-1-21 32-41 47-30 45-88 93-65 170 1 29-14 58-13 86-1 19 8 37 7 56 1 29-17 54-15 84-1 91 41 183 12 270-7 18-13 38-18 59-31 26-131 80-145 0-17-6-32-15-45-26-5-40-41-53-41-99 0-32 16-64 8-98 1-20 18-24 18-45-1-19-21-22-20-43-1-82 31-189-12-250" id="e"/><path fill="#fff" d="M899-1161c83 3 95 85 96 170-1 85-33 144-34 229-1 49-29 89-21 144 12 84-36 122-44 203-4 48-3 104-10 151-2 19-27 23-18 49-11 45-34 90-30 147 9 77-38 109-46 175-1 19-16 31-22 49 0 13 10 23 4 37-19 7-15 30-33 38v48c-34 31-29 98-59 134-15 22-15 58-39 69-29 14-45 44-59 73-59 14-99 54-166 59-64-15-146-9-184-53-23-17-42-39-74-45-40-7-48-50-72-74-17-21-48-32-59-59 18-24 3-71 17-99 13-30 37-47 48-79 44 7 96-21 128 17 34 41 44 115 83 149 23-1 46-4 60 12 49-9 94-44 123-75 23-22 15-41 10-70 22-25 36-58 47-93-12-23-46-26-74-32-28-36-63-58-106-66-23-29-29-64-60-86-8-94-99-164-115-254 1-36-30-47-26-86 1-59-44-82-44-145 0-44-1-91-11-129 3-16 6-27 12-41-16-30-16-74-39-99 8-61-7-122-6-184-1-20 13-36 12-55-1-38-20-83 4-112 8-11 16-23 23-38 45-7 93-12 125 13 1 27 42 9 44 37 23 43 40 80 35 149 0 20 25 38 21 63 1 22-9 40-8 62-1 19 9 34 8 53 1 27-15 51-14 78-1 19 15 34 14 53 1 11-9 16-8 27 7 45 25 81 26 133 13 25 30 55 24 95-4 76 39 119 56 181 25 5 14 41 33 53 23 25 32 60 53 87 34 7 60 30 92 39 45-35 20-130 46-186 19-40 44-94 26-150 44-64 23-182 53-264 13-115-3-251 25-355-4-40 17-73 22-108 31-15 67-39 111-39" id="f"/><path fill="#fff" d="M987-877c-24 63 28 94 25 157 0 116 5 249-32 333-18 35-13 83-5 123-17 69-58 126-53 213-39 41-51 109-74 166-80 44-168-19-178-92-5-35 16-64 14-101 4-26 31-33 29-66 4-29 10-67 10-98 38-37 47-103 72-153-11-44 15-81 14-123 1-22-7-40-6-62 26-100-1-226-53-284-16-71-117-42-156-12-33 22-66 48-76 92-19 32-57 51-58 101-1 15-4 29-7 44-22 18-35 45-54 66-22 72-47 148-67 221 8 46 6 94 2 143-6 81 48 190-8 248-13 14-29 21-33 43-33-8-53 21-88 20-61-8-94-65-94-127 0-168 16-351 10-534-7-23-6-45 0-68 1-23-13-48-12-71 29-91 14-216 14-330 0-19 0-34-8-47 3-18 15-32 14-53 2-31-22-58-20-89-1-47 13-94 12-141 1-39-9-76-8-115-2-66 44-100 106-100 33-3 78-31 86 18 3 10 12 13 21 17 16 51 34 130 34 190 0 43-25 66-26 109-1 54 13 106 12 160 1 59-32 120-6 176 46-8 43-63 73-87 21-17 45-32 54-60 15-22 51-20 57-52 44-12 90-34 146-33 84 2 138 50 213 60 13 0 26 26 39 26 13 46 9 101 42 133 10 12 17 25 23 39" id="g"/><path fill="#fff" d="M965-268c0 48 14 88 28 125-7 34-26 54-20 98-23 11-18 49-33 68C894 5 820 36 788-4c-14-23-50 7-60-22-9-9 1-66-13-78-71 14-96 87-172 92-28 46-92 63-162 63-60 0-108-50-156-69-16-8-29-10-39-7-20-22-28-56-60-65-44-15-37-81-65-113 11-57-1-143 39-172-5-90 63-106 101-157 13-13 40 4 45-21 34 9 41-38 73-20 19-29 53-43 72-72 36 10 35-30 70-27 27-6 47-29 74-35 13 0 23 7 34 9 17-18 37-30 47-54 43-20 90-49 99-102-6-54-52-75-66-121-33-5-41-40-90-30-17 0-31-2-41-11-52 11-58 67-127 60-26 50-38 108-72 151-9 30-11 61-32 80-13 4-27 6-41 6-74-8-141-40-152-112-2-36 23-68 21-105 37-13 36-65 71-80-4-22 13-19 7-39 31-18 55-42 73-73 34-15 75-19 100-44 27-26 83-16 128-14 50-19 134-24 182 6 42 10 66-1 90 26 7 8 19 21 35 40 57 11 93 59 99 118 7 61 56 77 61 136 1 26-10 50-9 76-2 23 17 42 15 65 2 30-17 54-15 84 0 44 13 82 27 115-17 49 7 101 6 151 0 40-20 61-20 101zm-508 71c17-13 18-23 47-20 28-38 78-56 125-72 14-41 58-44 77-82 15-30 42-62 50-98 1-26-7-46-6-72 1-34-12-43-48-39-26 24-42 59-84 67-11 3-21 9-28 19-40-2-52 29-98 21-23 32-35 75-74 92-77-15-141 43-111 119 16 30 52 32 72 59 24 5 60-7 78 6" id="h"/><path fill="#fff" d="M950-502c92 11 80 187 27 238 5 84-59 99-105 133 2 29-10 49-14 72-29-6-45 25-72 6-24 5-15 37-49 33-30 10-36 49-81 44-19 2-40 0-50 11-13 15-26-2-41-2-40 10-96 44-141 13-43-27-91-58-133-85-9-25-41-25-47-53-27-16-33-55-66-66-12-26-22-53-33-80-11-6-19-16-12-34-10-31-35-64-41-99-1-20 7-38 6-57-20-46-7-112-20-162-2-16 15-28 14-43 2-43-20-84-18-127 0-36 23-82 45-98v-47c29-10 21-57 43-75 10-13 18-26 16-50 48-18 70-64 119-80 41-47 133-68 184-104 78 8 172-5 232 26 7 16 26 22 26 45 93 44 139 153 146 283 0 22-19 31-17 55-1 33-25 49-37 72-31 69-59 138-112 187-10 9-16 19-19 32-48 0-43 53-92 51-11 19-22 30-35 47-28 1-33 30-65 27-23 35-69 45-86 86-15 5-41 4-45 20 1 26 9 54 39 52 10 21 31 32 47 47 68-3 153 15 193-26 5-4 11-6 18-7 19-31 33-69 71-80 18-40 57-70 48-131 30-38 51-97 108-107 24 0 38 20 49 33zM608-793c65-7 30-96 39-151-12 2-8-14-14-21-27-23-76-41-119-45-49-4-57 39-98 45-6 40-45 50-50 93-4 42-31 68-42 106-26 13-20 57-21 94 1 49 22 90 10 140-1 38 50 8 56-8 8-20 39-18 47-38 12-28 55-30 74-51 16-18 31-39 59-45 23-32 46-77 59-119" id="i"/><g id="a"><use transform="matrix(0.043402777777777776,0,0,0.043402777777777776,0,0)" xlink:href="#b"/><use transform="matrix(0.0390625,0,0,0.0390625,48.95833333333333,0)" xlink:href="#c"/><use transform="matrix(0.0390625,0,0,0.0390625,85.36458333333331,0)" xlink:href="#d"/><use transform="matrix(0.0390625,0,0,0.0390625,129.50520833333331,0)" xlink:href="#e"/><use transform="matrix(0.0390625,0,0,0.0390625,166.45833333333331,0)" xlink:href="#f"/><use transform="matrix(0.043402777777777776,0,0,0.043402777777777776,208.05989583333331,0)" xlink:href="#b"/><use transform="matrix(0.0390625,0,0,0.0390625,257.01822916666663,0)" xlink:href="#g"/><use transform="matrix(0.0390625,0,0,0.0390625,299.59635416666663,0)" xlink:href="#h"/><use transform="matrix(0.0390625,0,0,0.0390625,341.97916666666663,0)" xlink:href="#e"/><use transform="matrix(0.0390625,0,0,0.0390625,378.93229166666663,0)" xlink:href="#i"/></g></defs></g></svg>