<svg xmlns="http://www.w3.org/2000/svg" xmlns:xlink="http://www.w3.org/1999/xlink" xmlns:lucid="lucid" width="423" height="114"><g transform="translate(0 -1296)" lucid:page-tab-id="0_0"><g filter="url(#a)"><path d="M32 1300h360v90.08H32z" stroke="#000" stroke-opacity="0" stroke-width="4" fill="#fff" fill-opacity="0"/><use xlink:href="#b" transform="matrix(1,0,0,1,37,1305) translate(-27.4133333333333 60.54)"/></g><defs><path fill="#3d4752" d="M415 38C262 51 165-15 65-63c2 17-19 34-17 50 98 42 245 119 367 51zm0-151c31-31 49-59 50-117-72-93-201-118-317-166-51-35-116-97-83-184-13 47-50 90-34 150 67 107 255 89 334 184 44 21 36 82 50 133zm50-434c1-15 9-24 17-33-23-40-70-51-133-50-15 17-64 14-51 50h34c58-18 105-13 133 33zM365-63c-20-16-55 2-83 0-59-18-119-38-134-100-11 29-46 32-67 50-14 36 34 32 51 50 68 44 162 91 274 66 32-7 64-24 93-49 0 15 12 4 16 0 46-51 112-99 101-200-50-139-220-161-316-252-8-9-14-19-18-32-61 4-4-34-17-67 3-35 48-32 67-50 76-19 119 4 167 34 19-21 15-57 33-84-26-15-56-19-83-33-145-18-250 11-334 83-33 43-41 112-17 167 41 95 168 96 260 143 61 31 136 56 141 141-19 69-81 99-134 133zM31 4c0-22 20-56 17-83H31c31-48 87-68 117-117 20 20 36 54 50 83 42 15 102 50 151 17 55 3 39-82 21-112-39-68-118-96-210-118C82-344 6-376 15-480c13-148 120-221 233-267 72-13 166-23 232 5 24 10 48 24 69 45-1-17 8 4 17 0-14 47-49 76-51 134-36 2-48 31-66 50-1-31-22-46-50-50-40-20-69 4-101 16 24 91 134 105 201 151s141 98 150 200C614-110 567-32 482 4c-56 60-183 123-284 67-55-30-98-49-167-67" id="c"/><path fill="#3d4752" d="M299 44c32 13 44-21 55-41-14 28-42 26-68 41h13zm-13-27c-78-51-82-164-69-283 4-35 4-67 1-98-12 10-11 36-28 41 1 121 0 225 28 326-2 25 29 15 40 27 13-1 20-6 28-13zm-68-408c-36 0-78 13-109 0-11 9-26 37-27 54l95-27v14zm163-14h-41v27h41v-27zm-272-27v-82C96-460 1-430 54-364zm95-245c-25 33-26 85-27 136h41v-109c-7-6-14-16-14-27zm27 449c12 57-9 138 27 177 4 31 45 28 55 54l68-41c-32-84-95-169-68-285-27-29 13-71 0-109 30-14 65 14 95 0l14-109H313c-14-69 13-133 0-204-26 14-81-1-82 41h14v190c-30-13-75 13-95-13-13 26-28 74-14 109 43-3 94-11 122 13zm-81-313c13-36-3-95 29-123 15-24 47-40 39-81 41-15 82-11 122-27-1 72-10 136-14 204 34 14 71 1 109 0-2 52-9 100-13 150-29 19-21 82-67 82-8 0-18-5-29-14-26 111 33 194 55 285 13 14 41 14 41 41-42 16-53 66-82 95-26-19-56 7-80 8-4-1-5-8-2-21-60-5-72-53-72-120 0-27 1-53-9-71 1-68-15-136-14-204-40 0-68 27-109 14-1 14 1 12-13 13-1-37-3-76-27-95 41-43 66-106 108-149 13 1 28-1 28 13" id="d"/><path fill="#3d4752" d="M78-319C41-265 48-175 38-95 50-35 54 36 116 48c71 14 168 9 210-27-71 18-183 20-210-39-60-61-54-195-38-301zm157 26c-31 27-58 98-26 144 28 21 91 30 130 14-1-38 26-89 0-118-16-30-74-93-104-40zm51-52c-1 16 14 13 28 14 31 50 74 97 65 182 21-41 66-105 26-156-9-46-67-42-119-40zm158 52c1 65-28 120-53 158-55 39-202 55-210-39-8-103 51-159 119-197 77-14 122 21 144 78zM339-476c-18-21-59-16-92-13C116-439 59-258 107-82c11 40 36 73 74 90 93 14 151 10 210-38 50-22 89-78 118-119 25-76 39-203-13-261-39-21-49-81-105-79v13c-23 5-40-26-52 0zm105-13c77 62 135 195 92 328-38 61-88 130-157 156-23 56-78 92-158 79C108 81 36 45 25-56c-10-93 8-187 25-263 27-37 68-92 93-131 63-23 105-75 196-65 8 13 15 1 26 0" id="e"/><path fill="#3d4752" d="M207 11c-36 10-88-3-124 7-9 3-14 9-14 20 45-12 118 25 138-27zm223-417c-19 0-31 17-56 14-40 28-93 47-97 111 32-64 140-42 153-125zM97-45c-71-96 6-274-28-403-39 44-17 127-15 194-26 79-1 179 0 265zm125-305c-41-21-15-94-28-140h-28c-21 15-73 3-69 42 12 111-27 228 0 333 13 53 22 138 97 98 61 2 33-76 35-127 1-68 13-129 33-178 41-52 97-92 168-112 5-61-37-89-86-62-40 22-81 57-95 104-13 12-5 34-27 42zM27 66C42-52-1-160 27-267v-139l55-84c38-11 93-28 140-28v112c27-50 77-95 128-122 59-31 108 3 107 66v56c-17 17-29 45-42 69-81 8-120 68-153 125-1 45-27 102 0 139-28 9 14 72-28 69-24 23-24 70-68 70-45 0-98-14-139 0" id="f"/><path fill="#3d4752" d="M60 440c45-3 89-14 136-15 34-20 46-33 76-62-81 12-191-8-212 77zM241 12l-75 46C134 186 65 287 43 425c18-30 29-62 62-77 39-117 101-216 136-336zM90-429c-49 58 5 138 15 198 44 67 31 178 61 259l91-46-46-45c-17-142-99-230-121-366zm411-61c-81 35-95 125-153 182 3 21 12 42 31 47 21-93 80-156 122-229zM348 211c90-226 168-460 289-655 1-46-61-29-75-61-68 81-133 160-168 274-10 8-16 32-30 15-15-76-71-113-92-183-16-53-49-70-106-77-15-2-31-6-46-14-13 13-14 25-15 46 30 63 40 143 77 198 50 73 59 184 121 243-58 85-90 194-152 275 1 25-17 58 0 76l152-15c13-43 42-69 45-122zm198-747c45 28 84 46 153 46-13 26-28 57-45 75C522-182 424 82 328 348c-5 9-24 2-25 15-54 67-115 92-229 92-23 0-49 3-61 15H-2C30 323 103 205 135 58c-17-20 6-33 16-46-44-59-19-177-76-228L43-384c16-33 47-71 32-121 58-16 99 23 166 15 44 45 52 117 92 167 30-43 62-78 77-136l121-61c8-1 16-7 15-16" id="g"/><path fill="#3d4752" d="M46 48c27 15 74 2 103 16 17-15 13-30 30-45C134 32 66-7 46 48zm374 0c27-14 53-13 90-14 3-21 27-24 30-45-47 14-97 20-120 59zM255-266h30c78 60 91 178 105 300 10-29 55-35 46-75-44-77 5-235-114-251-30-4-55 7-67 26zM75-686c-26 29-44 54-45 105 0 199-14 405 0 600L46 4c34 3 34-29 29-59-29-201 0-420 0-631zm104 270c15-89 15-197 16-300l-16-30c-26 1-59-29-74 0 2 75-15 166-15 241 0 164 23 308 15 479 11 0 17-6 27-6 7 9-8 15-12 21h59c24-92-24-236 63-281 20-10 43-18 58-34 49 0 94 34 120 60 28 66 18 159 46 225h14v15l75-15c1-45 14-94 0-136-31-99-53-205-135-254-34-38-131-48-179-15-29 0-28 45-62 30zM75-776c37-29 76 12 120 0l16 14v287c29 13 52-11 74-16 108 3 181 51 225 119 37 110 103 194 89 346-46 8-55 53-78 84-10 13-22 17-41 6-45-1-83 7-106 30-26-119-5-279-89-344-20 13-36 1-60 0-28 67-15 168-14 254-17 30-30 60-62 74-44-1-89 1-119-14-8 0-13 7-14 14L0 64c16-221 0-464 16-690 27-42 59-84 59-150" id="h"/><path fill="#3d4752" d="M575-61c-27 16-56 12-83 28-13 30-47 45-53 82 63-20 135-28 136-110zM452-73c-26 24-26 75-41 109 10-37 80-65 41-109zM316-265c-28-1-58-14-82 0-19 83 102 79 144 40 19-18 43-42 33-80-23-21-37-44-82-42-30 0-58 33-67 56 55-12 98 19 121 54l-12 13zm-205-82c-47 43-51 116-68 191C22-63 89-21 139 22c82 69 195-9 258-41l28-54C364-40 301 22 206-5c-41-27-82-68-109-109-26-83-28-167 14-233zm95 68c45-26 59-89 123-95 55 15 119 46 97 122-5 16-22 29-43 42-34 37-90 41-135 14-27-16-17-62-42-83zM480-61c18-11 53 0 68-12 59 15 44-54 54-97-25-108-30-230-68-327h-68c-25 11-15 54-14 83-31 49-38-42-69-42-16 0-41 13-54 0-47 1-85 1-109 28-67 31-105 98-123 177 1 101 40 169 109 204 60 31 111 8 165-14 42-17 52-66 95-81 24 17 1 56 14 81zm-55-381c12-26-10-85 41-68 31 0 74 0 95 13 2 65 23 111 28 178 6 78 54 159 26 246-32 35-31 98-89 111-43 9-87 24-115 52-24-17-16-54-28-82-57 34-133 92-218 54C89 28 4-26 16-142c14-141 93-241 190-314 22 13 42-15 68-13 53-18 123-6 151 27" id="i"/><path fill="#3d4752" d="M498-254c-71-1-157 15-228 14-43-11-14 43-14 71 57-14 140 0 199-14 15-31 28-41 43-71zM85-326C12-277 20-141 42-41c74 94 154 172 313 143 28-14 58-43 72-71C266 62 136-2 70-98c-45-66 1-164 15-228zm171-42l14 28h28c-13-11-23-27-42-28zm85-15c0-28-56-28-57 0 13 10 23 32 43 33 10-5 5-26 14-33zm-33-49c62-6 45 58 47 106-39-1-85 30-114 0-11-54 17-101 67-106zm-42 330c-42-24-53-95-39-152 106-1 193-28 299-29-20-62-32-137-76-173-51-41-151-56-223-27C106-435 94-285 85-126 121-31 223 4 339 14c48 4 84-7 116-26 13-22 1-46 0-71-49 44-153 16-189-19zM13-240c32-78 92-163 143-228 29 13 43-15 57-29 70-30 186-25 242 14 63 44 71 137 100 214 0 9-7 13-14 15-52 18-51 112-129 85-42 16-99 13-156 14 1 47 49 46 71 72 51 3 109 7 128-29 25-3 16 18 29 29-15 38 27 102-29 114-26 40-54 67-85 99C218 159 121 76 42 2 4-54 11-149 13-240" id="j"/><g id="b"><use transform="matrix(0.08,0,0,0.08,0,0)" xlink:href="#c"/><use transform="matrix(0.06666666666666667,0,0,0.06666666666666667,53.28,0)" xlink:href="#d"/><use transform="matrix(0.06666666666666667,0,0,0.06666666666666667,83.08,0)" xlink:href="#e"/><use transform="matrix(0.06666666666666667,0,0,0.06666666666666667,120.54666666666667,0)" xlink:href="#f"/><use transform="matrix(0.06666666666666667,0,0,0.06666666666666667,151.94666666666666,0)" xlink:href="#g"/><use transform="matrix(0.08,0,0,0.08,199.01333333333332,0)" xlink:href="#c"/><use transform="matrix(0.06666666666666667,0,0,0.06666666666666667,252.29333333333332,0)" xlink:href="#h"/><use transform="matrix(0.06666666666666667,0,0,0.06666666666666667,292.96,0)" xlink:href="#i"/><use transform="matrix(0.06666666666666667,0,0,0.06666666666666667,335.35999999999996,0)" xlink:href="#f"/><use transform="matrix(0.06666666666666667,0,0,0.06666666666666667,366.75999999999993,0)" xlink:href="#j"/></g><filter id="a" filterUnits="objectBoundingBox" x="-.03" y="-.04" width="1.06" height="1.22"><feOffset result="offOut" in="SourceAlpha" dy="6"/><feGaussianBlur result="blurOut" in="offOut" stdDeviation="5"/><feColorMatrix result="colorOut" in="blurOut" values="0 0 0 0 0 0 0 0 0 0 0 0 0 0 0 0 0 0 0.16862745098039217 0"/><feBlend in="SourceGraphic" in2="colorOut"/></filter></defs></g></svg>